# xmcd CD database file
#
# Track frame offsets:
#	150
#	11355
#	30364
#	45887
#	61080
#	74486
#	91665
#	104643
#	117183
#	128858
#	138867
#	153484
#
# Disc length: 2183 seconds
#
# Revision: 0
# Processed by: cddbd v1.5.1PL2 Copyright (c) Steve Scherf et al.
# Submitted via: CDex 1.60beta1-cs1
#
DISCID=8e08850c
DTITLE=VariousArtists - ティータイムミュージック2 ジャズを聴きながら
DYEAR=1900
DGENRE=Jazz
TTITLE0=スウィンギング・サクソフォン
TTITLE1=タウン・パブ
TTITLE2=アーリー・イン・ボストン
TTITLE3=ザ・ダッチ・ソルジャー
TTITLE4=ウッデンシューズ
TTITLE5=ザ・ベル・アンド・ザ・バグル
TTITLE6=スタンディング・フォー・エレファント
TTITLE7=ザ・ランブリン・スワロー
TTITLE8=パン・ポット・ディキシー
TTITLE9=ロンサム・ロード
TTITLE10=アレナ・サンタ・モニカ
TTITLE11=エル・レアル
EXTD=
EXTT0=
EXTT1=
EXTT2=
EXTT3=
EXTT4=
EXTT5=
EXTT6=
EXTT7=
EXTT8=
EXTT9=
EXTT10=
EXTT11=
PLAYORDER=
